<svg width="24" height="25" viewBox="0 0 24 25" fill="none" xmlns="http://www.w3.org/2000/svg">
<path d="M15 19.5C15 17.29 12.314 15.5 9 15.5C5.686 15.5 3 17.29 3 19.5M19 16.5V13.5M19 13.5V10.5M19 13.5H16M19 13.5H22M9 12.5C7.93913 12.5 6.92172 12.0786 6.17157 11.3284C5.42143 10.5783 5 9.56087 5 8.5C5 7.43913 5.42143 6.42172 6.17157 5.67157C6.92172 4.92143 7.93913 4.5 9 4.5C10.0609 4.5 11.0783 4.92143 11.8284 5.67157C12.5786 6.42172 13 7.43913 13 8.5C13 9.56087 12.5786 10.5783 11.8284 11.3284C11.0783 12.0786 10.0609 12.5 9 12.5Z" stroke="white" stroke-width="2" stroke-linecap="round" stroke-linejoin="round"/>
</svg>
